
<svg width="200" height="200" viewBox="0 0 500 500" xmlns="http://www.w3.org/2000/svg">
  <g fill="none" stroke-width="10" stroke-linecap="round" stroke-linejoin="round">
    <!-- Book Pages -->
    <path d="M100 350 C170 300, 330 300, 400 350" stroke="#000" fill="none"/>
    <path d="M110 360 C180 310, 320 310, 390 360" stroke="#8000ff" fill="none"/>
    <path d="M120 370 C190 320, 310 320, 380 370" stroke="#000" fill="none"/>

    <!-- Arrows rising from book -->
    <path d="M250 350 C260 280, 280 220, 330 150" stroke="#000" />
    <path d="M250 350 C240 280, 220 220, 170 150" stroke="#8000ff" />

    <!-- Small inner arrow -->
    <path d="M250 350 C260 290, 280 240, 310 200" stroke="#8000ff" stroke-width="6"/>
    <polygon points="310,200 305,210 320,205" fill="#8000ff"/>

    <!-- Graduation Cap -->
    <polygon points="180,100 250,70 320,100 250,130" fill="#8000ff"/>
    <path d="M215 120 Q250 140 285 120" stroke="#fff" stroke-width="6"/>
    <line x1="250" y1="130" x2="250" y2="150" stroke="#8000ff" stroke-width="6"/>
    <circle cx="250" cy="150" r="5" fill="#8000ff"/>
  </g>
</svg>
